<svg width="41" height="41" viewBox="0 0 41 41" fill="none" xmlns="http://www.w3.org/2000/svg">
<path d="M24.488 28.044C23.96 27.9413 23.4907 27.7873 23.08 27.582C22.6693 27.3767 22.2953 27.1493 21.958 26.9C21.6207 26.6507 21.3127 26.3867 21.034 26.108C20.77 25.8293 20.528 25.558 20.308 25.294L14.016 17.99C13.752 17.6967 13.466 17.3373 13.158 16.912C12.85 16.4867 12.5567 16.0687 12.278 15.658C12.3073 16.0393 12.3367 16.4427 12.366 16.868C12.41 17.2787 12.432 17.6527 12.432 17.99V28H11.09V12.732H11.508L21.65 24.832C21.7527 24.9493 21.8627 25.0813 21.98 25.228C22.0973 25.36 22.2367 25.4993 22.398 25.646C22.3687 25.3527 22.3467 25.052 22.332 24.744C22.3173 24.436 22.31 24.1353 22.31 23.842V12.93H23.652V26.592C23.828 26.6947 24.0113 26.79 24.202 26.878C24.3927 26.9513 24.598 27.01 24.818 27.054L24.488 28.044Z" fill="#8444DF"/>
<path d="M26.864 13.942C26.3947 13.942 26.0207 13.9567 25.742 13.986C25.4633 14.0007 25.2213 14.0227 25.016 14.052C24.8253 14.0667 24.642 14.0887 24.466 14.118C24.29 14.1473 24.0847 14.162 23.85 14.162V28H22.508V14.118C22.0387 14.0447 21.5913 13.9127 21.166 13.722C20.7553 13.5313 20.4033 13.2307 20.11 12.82L20.836 12.072C21.144 12.3653 21.5107 12.5853 21.936 12.732C22.3613 12.8787 22.8673 12.952 23.454 12.952C23.7913 12.952 24.0773 12.9447 24.312 12.93C24.5467 12.9007 24.7813 12.8713 25.016 12.842C25.2507 12.8127 25.5073 12.7907 25.786 12.776C26.0793 12.7467 26.4607 12.732 26.93 12.732C27.6193 12.732 28.2427 12.8567 28.8 13.106C29.372 13.3407 29.856 13.678 30.252 14.118C30.648 14.5433 30.956 15.0493 31.176 15.636C31.396 16.208 31.506 16.8313 31.506 17.506C31.506 18.1953 31.396 18.8333 31.176 19.42C30.956 19.992 30.648 20.498 30.252 20.938C29.856 21.3633 29.372 21.7007 28.8 21.95C28.2427 22.1847 27.6193 22.302 26.93 22.302C26.6513 22.302 26.3947 22.302 26.16 22.302C25.9253 22.302 25.72 22.2947 25.544 22.28C25.3387 22.28 25.148 22.2727 24.972 22.258V21.048C25.148 21.0627 25.3387 21.07 25.544 21.07C25.72 21.0847 25.918 21.092 26.138 21.092C26.3727 21.092 26.6147 21.092 26.864 21.092C27.3627 21.092 27.8173 21.004 28.228 20.828C28.6387 20.652 28.9907 20.41 29.284 20.102C29.5773 19.7793 29.8047 19.398 29.966 18.958C30.1273 18.518 30.208 18.034 30.208 17.506C30.208 16.978 30.1273 16.5013 29.966 16.076C29.8047 15.636 29.5773 15.262 29.284 14.954C28.9907 14.6313 28.6387 14.382 28.228 14.206C27.8173 14.03 27.3627 13.942 26.864 13.942Z" fill="#8444DF"/>
<path d="M3.74648 10.8273L20.5 1.1547L37.2535 10.8273V30.1726L20.5 39.8453L3.74648 30.1726V10.8273Z" stroke="#8444DF" stroke-width="2"/>
</svg>
